# xmcd CD database file
#
# Track frame offsets:
#	150
#	41120
#	91542
#	105112
#	110624
#	127634
#	162829
#	176949
#	191669
#	209864
#	237414
#	258224
#	281434
#	315009
#
# Disc length: 4431 seconds
#
# Revision: 0
# Processed by: cddbd v1.5.2PL0 Copyright (c) Steve Scherf et al.
# Submitted via: CDex 1.51
#
DISCID=b3114d0e
DTITLE=Swami Vishwananda - Gurupurnima 2007 - Speeches by Swami Vishwananda
DYEAR=2007
DGENRE=New Age
TTITLE0=The Teacher Serves the Diciples
TTITLE1=Guidlines for Disciples
TTITLE2=School of Life
TTITLE3=The Meaning of beeing Brahmachari
TTITLE4=Bhaja Govindan (Bhajan)
TTITLE5=Celibracy and Discipline
TTITLE6=Rising into Divine Love
TTITLE7=Let Go of Everything
TTITLE8=Jal/Water Brahmachari
TTITLE9=Guru Sharanam (Bhajan)
TTITLE10=The Ego and the Mind are Your Obstacles
TTITLE11=A Story about Krishna
TTITLE12=A Story aboutReal love
TTITLE13=Five Blind Men
EXTD=YEAR: 2007
EXTT0=
EXTT1=
EXTT2=
EXTT3=
EXTT4=
EXTT5=
EXTT6=
EXTT7=
EXTT8=
EXTT9=
EXTT10=
EXTT11=
EXTT12=
EXTT13=
PLAYORDER=
